<svg width="478" height="178" viewBox="0 0 478 178" fill="none" xmlns="http://www.w3.org/2000/svg">
<g filter="url(#filter0_d_315_2027)">
<path d="M134.324 18.8987C135.704 18.8987 136.67 20.2635 136.21 21.5648L88.814 155.739C88.5317 156.538 87.776 157.073 86.9282 157.073H60.0182C59.1695 157.073 58.4132 156.537 58.1315 155.736L10.9369 21.5623C10.4793 20.2614 11.4446 18.8987 12.8236 18.8987H42.3248C43.1936 18.8987 43.963 19.4596 44.2289 20.2867L71.5197 105.197C72.1142 107.047 74.7308 107.048 75.3272 105.199L102.715 20.2848C102.981 19.4586 103.75 18.8987 104.618 18.8987H134.324Z" fill="url(#paint0_linear_315_2027)"/>
<path d="M185.171 129.461C184.192 130.558 184.702 132.29 186.161 132.476C186.233 132.485 186.304 132.494 186.375 132.502C187.48 132.566 188.586 132.599 189.691 132.599C192.455 132.599 195.114 132.245 197.671 131.539C200.227 130.832 202.61 129.836 204.821 128.552C207.101 127.203 209.104 125.597 210.831 123.734C211.989 122.491 213.004 121.169 213.875 119.766C214.588 118.618 216.19 118.314 217.177 119.237L234.592 135.511C235.341 136.21 235.443 137.365 234.797 138.16C232.436 141.065 229.767 143.708 226.79 146.088C223.405 148.851 219.709 151.195 215.702 153.122C211.764 155.049 207.584 156.495 203.163 157.458C198.81 158.486 194.32 159 189.691 159C181.885 159 174.527 157.651 167.618 154.953C160.779 152.255 154.768 148.497 149.587 143.679C144.475 138.862 140.433 133.145 137.463 126.528C134.492 119.847 133.007 112.524 133.007 104.559C133.007 96.4009 134.492 88.9493 137.463 82.2044C140.433 75.4595 144.475 69.7103 149.587 64.9568C154.768 60.2032 160.779 56.5096 167.618 53.8758C174.527 51.2421 181.885 49.9253 189.691 49.9253C194.32 49.9253 198.845 50.4392 203.266 51.467C207.688 52.4947 211.868 53.9722 215.805 55.8993C219.812 57.8264 223.543 60.2032 226.997 63.0296C230.016 65.4435 232.718 68.1271 235.103 71.0805C235.704 71.824 235.658 72.8903 235.021 73.6033L185.171 129.461ZM195.765 79.8031C196.64 78.7233 196.167 77.1025 194.797 76.8689C194.408 76.8025 194.018 76.7503 193.629 76.7122C192.385 76.5837 191.073 76.5195 189.691 76.5195C185.822 76.5195 182.161 77.1939 178.707 78.5429C175.321 79.8277 172.351 81.6906 169.795 84.1316C167.307 86.5726 165.339 89.5275 163.888 92.9963C162.437 96.4009 161.712 100.255 161.712 104.559C161.712 105.523 161.746 106.615 161.815 107.835C161.953 109.056 162.126 110.308 162.333 111.593C162.61 112.813 162.921 114.002 163.266 115.158C163.319 115.336 163.375 115.51 163.432 115.682C163.874 116.989 165.523 117.118 166.392 116.047L195.765 79.8031Z" fill="url(#paint1_linear_315_2027)"/>
<path d="M278.708 155.073C278.708 156.177 277.812 157.073 276.708 157.073H252.417C251.313 157.073 250.417 156.177 250.417 155.073V55.8758C250.417 54.7713 251.313 53.8758 252.417 53.8758H256.266C256.89 53.8758 257.479 54.1672 257.857 54.6635L265.308 64.4399C266.002 65.3499 267.314 65.4903 268.219 64.7899C272.371 61.5759 277.007 59.062 282.127 57.2483C287.931 55.1285 293.941 54.0686 300.159 54.0686H323.133C324.238 54.0686 325.133 54.964 325.133 56.0686V78.2773C325.133 79.3819 324.238 80.2773 323.133 80.2773H300.159C297.188 80.2773 294.39 80.7912 291.765 81.819C289.14 82.8468 286.86 84.26 284.925 86.0587C282.991 87.8573 281.471 89.9771 280.366 92.4182C279.26 94.8592 278.708 97.4608 278.708 100.223V155.073Z" fill="url(#paint2_linear_315_2027)"/>
<path d="M371.662 25.8363C371.662 28.2773 371.144 30.5578 370.108 32.6776C369.141 34.7974 367.793 36.6603 366.066 38.2662C364.339 39.8079 362.301 41.0605 359.952 42.0241C357.672 42.9234 355.22 43.3731 352.595 43.3731C349.969 43.3731 347.482 42.9234 345.133 42.0241C342.854 41.0605 340.85 39.8079 339.123 38.2662C337.465 36.6603 336.118 34.7974 335.081 32.6776C334.114 30.5578 333.631 28.2773 333.631 25.8363C333.631 23.4595 334.114 21.2112 335.081 19.0914C336.118 16.9073 337.465 15.0445 339.123 13.5028C340.85 11.8968 342.854 10.6442 345.133 9.7449C347.482 8.78135 349.969 8.29957 352.595 8.29957C355.22 8.29957 357.672 8.78135 359.952 9.7449C362.301 10.6442 364.339 11.8968 366.066 13.5028C367.793 15.0445 369.141 16.9073 370.108 19.0914C371.144 21.2112 371.662 23.4595 371.662 25.8363ZM366.792 155.073C366.792 156.177 365.896 157.073 364.792 157.073H340.294C339.189 157.073 338.294 156.177 338.294 155.073V55.8758C338.294 54.7713 339.189 53.8758 340.294 53.8758H364.792C365.896 53.8758 366.792 54.7713 366.792 55.8758V155.073Z" fill="url(#paint3_linear_315_2027)"/>
<path d="M424.409 155.073C424.409 156.177 423.513 157.073 422.409 157.073H398.118C397.014 157.073 396.118 156.177 396.118 155.073V82.0846C396.118 80.98 395.223 80.0846 394.118 80.0846H384.336C383.231 80.0846 382.336 79.1892 382.336 78.0846V55.8758C382.336 54.7713 383.231 53.8758 384.336 53.8758H394.118C395.223 53.8758 396.118 52.9804 396.118 51.8758V48.9617C396.118 42.6022 397.396 36.6282 399.953 31.0395C402.578 25.4509 406.136 20.601 410.626 16.4898C415.186 12.3144 420.471 9.03829 426.481 6.66152C432.492 4.22051 438.917 3 445.756 3H465C466.105 3 467 3.89543 467 5V27.2088C467 28.3133 466.105 29.2088 465 29.2088H445.756C442.716 29.2088 439.884 29.7227 437.259 30.7505C434.703 31.714 432.457 33.0951 430.523 34.8938C428.658 36.6282 427.172 38.7159 426.067 41.1569C424.962 43.5337 424.409 46.1353 424.409 48.9617V51.8758C424.409 52.9804 425.304 53.8758 426.409 53.8758H457.124C458.229 53.8758 459.124 54.7713 459.124 55.8758V78.0846C459.124 79.1892 458.229 80.0846 457.124 80.0846H426.409C425.304 80.0846 424.409 80.98 424.409 82.0846V155.073Z" fill="url(#paint4_linear_315_2027)"/>
</g>
<defs>
<filter id="filter0_d_315_2027" x="0.721777" y="0.9" width="476.378" height="176.2" filterUnits="userSpaceOnUse" color-interpolation-filters="sRGB">
<feFlood flood-opacity="0" result="BackgroundImageFix"/>
<feColorMatrix in="SourceAlpha" type="matrix" values="0 0 0 0 0 0 0 0 0 0 0 0 0 0 0 0 0 0 127 0" result="hardAlpha"/>
<feOffset dy="8"/>
<feGaussianBlur stdDeviation="5.05"/>
<feComposite in2="hardAlpha" operator="out"/>
<feColorMatrix type="matrix" values="0 0 0 0 0.0215375 0 0 0 0 0.000625 0 0 0 0 0.15 0 0 0 0.5 0"/>
<feBlend mode="normal" in2="BackgroundImageFix" result="effect1_dropShadow_315_2027"/>
<feBlend mode="normal" in="SourceGraphic" in2="effect1_dropShadow_315_2027" result="shape"/>
</filter>
<linearGradient id="paint0_linear_315_2027" x1="238.5" y1="3" x2="238.5" y2="159" gradientUnits="userSpaceOnUse">
<stop stop-color="white"/>
<stop offset="1" stop-color="#7E8BFF"/>
</linearGradient>
<linearGradient id="paint1_linear_315_2027" x1="238.5" y1="3" x2="238.5" y2="159" gradientUnits="userSpaceOnUse">
<stop stop-color="white"/>
<stop offset="1" stop-color="#7E8BFF"/>
</linearGradient>
<linearGradient id="paint2_linear_315_2027" x1="238.5" y1="3" x2="238.5" y2="159" gradientUnits="userSpaceOnUse">
<stop stop-color="white"/>
<stop offset="1" stop-color="#7E8BFF"/>
</linearGradient>
<linearGradient id="paint3_linear_315_2027" x1="238.5" y1="3" x2="238.5" y2="159" gradientUnits="userSpaceOnUse">
<stop stop-color="white"/>
<stop offset="1" stop-color="#7E8BFF"/>
</linearGradient>
<linearGradient id="paint4_linear_315_2027" x1="238.5" y1="3" x2="238.5" y2="159" gradientUnits="userSpaceOnUse">
<stop stop-color="white"/>
<stop offset="1" stop-color="#7E8BFF"/>
</linearGradient>
</defs>
</svg>
